<?xml version="1.0" encoding="utf-8"?>
<!-- Generator: Adobe Illustrator 16.0.0, SVG Export Plug-In . SVG Version: 6.00 Build 0)  -->
<!DOCTYPE svg PUBLIC "-//W3C//DTD SVG 1.1//EN" "http://www.w3.org/Graphics/SVG/1.1/DTD/svg11.dtd">
<svg version="1.1" id="Layer_1" xmlns="http://www.w3.org/2000/svg" xmlns:xlink="http://www.w3.org/1999/xlink" x="0px" y="0px"
	 width="100.5px" height="18px" viewBox="0 0 100.5 18" enable-background="new 0 0 100.5 18" xml:space="preserve">
<g display="none">
	<path display="inline" d="M3.112,9.755V5.984L1.978,6.49c-0.002,0-0.291,0.648-0.238,1.586c0.039,0.736,0.449,1.615,0.766,1.982
		L3.112,9.755 M6.433,1.99c0.279,0.025,0.719,0.164,1.049,0.454c0.352,0.34,0.434,0.859,0.309,1.33
		C7.683,4.193,7.56,4.41,7.13,4.701C6.698,4.992,6.175,4.968,6.175,4.968v1.818L7.06,7.502L6.175,8.215v2.478
		c0,0,0.887-0.508,1.436-1.646c0,0,0.023-0.062,0.074-0.179c0.049,0.305,0.021,0.921-0.324,1.714
		c-0.26,0.594-0.732,1.168-1.324,1.495c-1.049,0.583-1.836,0.639-2.68,0.463c-0.988-0.203-1.887-0.758-2.5-1.727
		c-0.43-0.68-0.621-1.473-0.605-2.329c0.035-1.675,1.283-3.121,2.721-3.66c0.176-0.066,0.246-0.11,0.494-0.131
		C3.351,4.771,3.22,4.871,3.056,4.978C2.593,5.283,2.196,5.889,2.026,6.357l2.793-1.248v3.906l-2.252,1.127
		c0.256,0.357,1.037,0.896,1.703,0.971c1.135,0.126,1.801-0.368,1.801-0.368V8.215L5.192,7.502l0.879-0.715V4.968
		C5.593,4.912,5.009,4.753,4.669,4.67C4.167,4.547,2.497,4.078,2.233,4.039C1.972,4,1.647,4.011,1.452,4.187
		S1.136,4.674,1.218,4.953c0.049,0.16,0.156,0.251,0.238,0.342c0,0-0.096-0.008-0.27-0.113C0.87,4.992,0.632,4.623,0.603,4.166
		c-0.037-0.598,0.209-1.137,0.703-1.5c0.428-0.274,0.912-0.452,1.477-0.371c0.822,0.117,1.93,0.582,2.914,0.818
		c0.383,0.094,0.678,0.125,0.945-0.031C6.767,2.99,6.987,2.757,6.808,2.449C6.599,2.087,6.196,2.096,5.854,2.031
		C6.149,1.97,6.212,1.97,6.433,1.99z"/>
	<path display="inline" d="M17.304,8.773l-1.27,0.93V6.609L17.304,8.773 M17.267,5.801c0,0-0.855,0.518-1.43,0.861
		c-0.576,0.342-1.348,0.718-1.348,0.718v3.6l-0.516,0.413l0.068,0.082l0.502-0.408l1.574,1.423l2.736-2.166l-0.066-0.078
		l-1.512,1.186l-1.242-1.163V9.833l2.496-1.836L17.267,5.801z"/>
	<path display="inline" d="M10.095,13.843c0.361,0.088,0.994,0.139,1.758-0.244c0.846-0.424,1.271-1.322,1.266-2.243l0.037-1.306
		V7.197l0.539-0.414l-0.062-0.079l-0.531,0.4L11.872,5.74l-1.576,1.352V2.496l-1.969,1.52c0.088,0.056,0.365,0.107,0.375,0.5v6.442
		l-0.834,0.617l0.057,0.086l0.402-0.297l1.123,1.04L11.214,11l-0.064-0.082l-0.414,0.33l-0.439-0.435L10.3,7.224l0.514-0.438
		l0.768,0.951c0,0-0.002,2.324,0,3.094c-0.006,0.824-0.008,1.85-0.439,2.344C10.71,13.675,10.536,13.714,10.095,13.843"/>
	<path display="inline" d="M22.345,13.519c-0.705-0.082-1-0.508-0.994-0.846c0.006-0.215,0.203-0.639,0.631-0.697
		c0.427-0.059,0.867,0.143,1.236,0.575l1.629-1.797l-0.08-0.07l-0.436,0.488c-0.445-0.504-1.076-0.825-1.703-0.918V4.773
		l4.229,7.705c0,0,0.041,0.09,0.215,0.09c0.15,0,0.113-0.123,0.113-0.123V4.691c0.344-0.016,0.869-0.203,1.123-0.465
		c0.816-0.837,0.482-1.75,0.393-1.838c-0.049,0.398-0.355,0.799-0.867,0.801c-0.674,0.001-1.082-0.494-1.082-0.494l-1.627,1.855
		l0.078,0.07l0.465-0.533c0.57,0.525,0.984,0.574,1.414,0.603v4.498L23.944,3.49c-0.285-0.472-0.717-0.885-1.395-0.89
		c-0.781-0.004-1.337,0.682-1.404,1.275c-0.074,0.668,0.008,0.822,0.008,0.822s0.115-0.744,0.576-0.738
		c0.412,0.006,0.628,0.387,0.794,0.672v1.652c-0.427,0.028-1.537,0.078-1.605,1.233c-0.004,0.43,0.262,0.88,0.494,1.033
		c0.303,0.197,0.537,0.194,0.537,0.194s-0.361-0.192-0.254-0.571c0.098-0.339,0.802-0.395,0.828-0.252v2.33
		c-0.339-0.003-1.425,0.033-1.917,0.965c-0.295,0.563-0.277,1.191,0.039,1.635C20.903,13.212,21.433,13.675,22.345,13.519"/>
	<path display="inline" d="M31.314,8.773l-1.269,0.93V6.609L31.314,8.773 M31.279,5.801c0,0-0.857,0.518-1.433,0.861
		C29.272,7.004,28.5,7.38,28.5,7.38v3.6l-0.516,0.413l0.068,0.082l0.502-0.408l1.574,1.423l2.736-2.166l-0.066-0.078l-1.51,1.186
		l-1.244-1.163V9.833l2.496-1.836L31.279,5.801z"/>
	<path display="inline" d="M35.104,12.517l-1.342-1.115l-0.59,0.43l-0.061-0.084l0.602-0.439V8.193
		c0.027-1.283-1.178-0.964-1.111-2.326c0.027-0.598,0.607-1.05,0.9-1.201c0.312-0.158,0.65-0.158,0.65-0.158
		s-0.547,0.343-0.416,0.836c0.207,0.762,1.508,0.83,1.533,1.843v3.536l0.959,0.768l0.252-0.195V7.467l-0.518-0.514l1.334-1.181
		l1.219,1.08l-0.465,0.504v3.39l1.141,0.943l0.203-0.131V7.477l-0.52-0.485l1.336-1.221l1.25,1.032l0.498-0.442l0.068,0.078
		l-1.123,0.986v3.329l-2.875,1.771l-1.469-1.163L35.104,12.517"/>
	<path display="inline" d="M93.924,8.773l-1.27,0.93V6.609L93.924,8.773 M93.889,5.801c0,0-0.857,0.518-1.432,0.861
		c-0.578,0.342-1.348,0.718-1.348,0.718v3.6l-0.516,0.413l0.068,0.082l0.502-0.408l1.574,1.423l2.734-2.166l-0.064-0.078
		l-1.512,1.186l-1.242-1.163V9.833l2.498-1.836L93.889,5.801z"/>
	<polyline display="inline" points="81.041,7.307 81.109,7.385 81.625,6.939 82.389,7.806 82.389,10.779 82.018,11.119 
		83.209,12.467 84.432,11.262 83.93,10.74 83.93,7.144 84.234,6.9 85.08,7.888 85.08,10.855 84.762,11.169 85.887,12.434 
		87.086,11.23 86.645,10.768 86.633,7.158 86.957,6.895 87.84,7.867 87.84,10.816 87.549,11.105 88.787,12.457 90.451,10.918 
		90.381,10.843 89.977,11.214 89.357,10.527 89.357,7.164 89.953,6.708 89.893,6.626 89.295,7.08 88.162,5.811 86.545,7.09 
		85.408,5.857 83.846,7.08 82.701,5.863 81.041,7.307 	"/>
	<polyline display="inline" points="77.658,7.213 77.725,7.291 78.16,6.916 78.84,7.721 78.84,11.123 78.361,11.541 78.428,11.619 
		78.93,11.189 80.029,12.457 81.617,11.039 81.549,10.96 81.08,11.371 80.426,10.615 80.426,7.291 80.979,6.812 80.91,6.734 
		80.387,7.187 79.23,5.84 77.658,7.213 	"/>
	<polyline display="inline" points="78.111,4.398 79.309,3.304 80.279,4.382 79.08,5.472 78.111,4.398 	"/>
	<path display="inline" d="M73.186,9.755V5.984L72.053,6.49c0,0-0.291,0.648-0.24,1.586c0.041,0.736,0.451,1.615,0.768,1.982
		L73.186,9.755 M76.508,1.99c0.279,0.025,0.717,0.164,1.049,0.454c0.352,0.34,0.434,0.859,0.311,1.33
		c-0.111,0.42-0.234,0.637-0.662,0.928c-0.432,0.292-0.957,0.268-0.957,0.268v1.818l0.885,0.715l-0.885,0.713v2.478
		c0,0,0.887-0.508,1.438-1.646c0,0,0.021-0.062,0.072-0.179c0.051,0.305,0.021,0.921-0.324,1.714
		c-0.26,0.594-0.73,1.168-1.322,1.495c-1.049,0.583-1.838,0.639-2.682,0.463c-0.986-0.203-1.885-0.758-2.496-1.727
		c-0.434-0.68-0.625-1.473-0.605-2.329c0.033-1.675,1.279-3.121,2.721-3.66c0.172-0.066,0.242-0.11,0.49-0.131
		c-0.115,0.078-0.246,0.178-0.408,0.285C72.668,5.283,72.27,5.889,72.1,6.357l2.795-1.248v3.906l-2.254,1.127
		c0.256,0.357,1.037,0.896,1.705,0.971c1.135,0.126,1.799-0.368,1.799-0.368V8.215l-0.879-0.713l0.879-0.715V4.968
		c-0.479-0.056-1.061-0.215-1.4-0.298c-0.502-0.123-2.174-0.592-2.436-0.631s-0.586-0.027-0.781,0.148s-0.318,0.487-0.234,0.766
		c0.047,0.16,0.156,0.251,0.24,0.342c0,0-0.098-0.008-0.273-0.113c-0.316-0.189-0.555-0.559-0.584-1.016
		c-0.035-0.598,0.209-1.137,0.703-1.5c0.43-0.274,0.912-0.452,1.479-0.371c0.82,0.117,1.93,0.582,2.914,0.818
		c0.383,0.094,0.678,0.125,0.945-0.031c0.125-0.091,0.344-0.324,0.164-0.633c-0.209-0.361-0.609-0.353-0.951-0.417
		C76.223,1.97,76.287,1.97,76.508,1.99z"/>
	<path display="inline" d="M97.449,6.496v1.787l0.594,0.518c0,0,1.291-1.034,1.76-1.992c0,0-0.58,0.787-1.361,0.547
		C97.785,7.156,97.449,6.496,97.449,6.496 M96.006,11.234c0,0,0.564-0.935,1.537-0.734c0.932,0.193,1.256,1.177,1.256,1.177V9.41
		l-0.65-0.566C97.434,9.562,96.162,10.601,96.006,11.234z M96.932,12.955c-0.182,0.053-0.971-0.137-1.158-0.954
		c-0.184-0.795,0.369-1.334,1.203-2.182l-0.984-0.902V7.199c0,0,0.723-0.361,1.289-0.715c0.568-0.355,1.148-0.742,1.148-0.742
		s0.426,0.537,0.902,0.494c0.75-0.066,0.715-0.656,0.691-0.797c0.129,0.229,0.473,0.906-0.846,2.424l1.072,0.867v2.233
		c0,0-1.244,0.648-2.422,1.507c0,0-0.658-0.824-1.229-0.43C96.213,12.305,96.391,12.754,96.932,12.955z"/>
	<path display="inline" d="M53.846,10.416l1.385,1.253V7.835l-1.385-1.283V10.416 M56.701,7.285l0.482-0.443l0.068,0.078
		l-0.471,0.436v3.552c0,0-0.893,0.471-1.516,0.823c-0.621,0.352-1.289,0.767-1.289,0.767l-1.637-1.381l-0.434,0.377l-0.07-0.078
		l0.455-0.396v-3.82h0.006c0,0,0.773-0.35,1.424-0.717c0.582-0.33,1.236-0.71,1.236-0.71L56.701,7.285z"/>
	<path display="inline" d="M59.92,6.926l1.041-1.063c0,0,0.145,0.125,0.279,0.191c0.074,0.037,0.391,0.199,0.678,0.042
		c0.156-0.086,0.178-0.11,0.352-0.272c0.037,0.827-0.363,1.409-0.857,1.649c-0.203,0.099-0.795,0.287-1.414-0.467v3.821l0.658,0.583
		l0.551-0.455l0.064,0.081l-1.723,1.438l-1.311-1.194l-0.473,0.443l-0.074-0.082l0.717-0.647l0.006-3.299l-0.551-0.73l-0.475,0.417
		L57.32,7.307l1.668-1.5L59.92,6.926"/>
	<path display="inline" d="M64.309,8.518l1.924-2.799c0,0,0.254,0.3,0.697,0.417c0.6,0.156,1.123-0.424,1.123-0.424
		c-0.1,0.749-0.479,1.598-1.264,1.729c-0.689,0.114-1.33-0.423-1.33-0.423l-0.125,0.195l2.67,4.033l0.535-0.469l0.07,0.078
		l-1.834,1.604L64.309,8.518"/>
	<path display="inline" d="M62.719,4.781c0-0.605-0.248-0.977-0.572-0.95l2.102-1.475v8.344l0,0l0.553,0.586l0.42-0.365L65.285,11
		l-1.689,1.477l-1.145-1.074l-0.461,0.401l-0.072-0.078l0.801-0.697V4.781"/>
	<path display="inline" d="M49.244,7.126c0,0-0.232,0.264-0.598,0.264c-0.363,0-0.604-0.265-0.604-0.265v1.144
		c0,0,0.24-0.266,0.604-0.266c0.365,0,0.598,0.25,0.598,0.25V7.126 M49.244,4.678l-0.811-0.711l-0.391,0.308v2.68
		c0,0,0.24,0.304,0.605,0.304s0.596-0.291,0.596-0.291V4.678z M48.043,12.269c0,0,0.488,0.129,0.846-0.162
		c0.395-0.33,0.355-0.787,0.355-0.787V8.428c0,0-0.23-0.295-0.596-0.295s-0.605,0.307-0.605,0.307V12.269z M45.174,4.644
		c-0.002-0.564-0.23-0.879-0.6-0.887c-0.535-0.012-0.66,0.74-0.66,0.74s-0.098-0.58,0.389-1.107
		c0.271-0.295,0.781-0.708,1.578-0.516c0.82,0.199,1.055,0.836,1.055,1.4v7.762c0,0,0.311,0.039,0.523,0.087
		c0.248,0.049,0.482,0.114,0.482,0.114v-9.36h0.102v1.262l1.686-1.357l1.234,1.099l0.576-0.498l0.064,0.078L51.002,3.98v7.22
		c-0.029,0.469-0.105,0.948-0.549,1.225c-0.994,0.588-2.189-0.092-3.254-0.246c-0.791-0.117-2.033-0.268-2.346,0.457
		c-0.102,0.24-0.096,0.609,0.264,0.849c0.721,0.482,3.928-0.81,5.027-0.296c1.004,0.466,1,1.205,0.844,1.713
		c-0.26,0.953-1.463,1.119-1.463,1.119s0.588-0.342,0.422-0.907c-0.086-0.287-0.279-0.365-0.908-0.295
		c-1.377,0.156-3.018,0.82-4.123,0.359c-0.568-0.238-0.971-0.949-0.932-1.648c0.027-1.005,1.189-1.402,1.189-1.402l-0.002-3.721
		C45.141,8.261,44.52,8.3,44.385,8.574c-0.205,0.413,0.256,0.602,0.256,0.602s-0.383,0.059-0.703-0.312
		c-0.156-0.182-0.484-0.814-0.059-1.4c0.35-0.484,0.766-0.568,1.295-0.625V4.644z"/>
</g>
<g>
	<path fill="#B5C8D7" d="M7.371,0.74c1.264-0.176,2.523-0.373,3.789-0.541c-0.002,1.725-0.002,3.45,0,5.172
		c0.561-0.422,1.17-0.795,1.848-0.99c0.623-0.189,1.279-0.235,1.926-0.205c0.488,0.035,0.992,0.205,1.328,0.576
		c0.365,0.361,0.512,0.885,0.518,1.387c0.01,2.051-0.006,4.102,0.01,6.152c0.346,0.152,0.678,0.326,1.02,0.488
		c0.012,0.27,0.01,0.542,0.01,0.813c-1.119,0.018-2.236,0.004-3.35,0.008c-0.564-0.006-1.127,0.012-1.689-0.01
		c0.012-0.281-0.039-0.566,0.029-0.84c0.279-0.16,0.588-0.269,0.885-0.396c0.008-0.131,0.014-0.262,0.016-0.391
		c0-1.567,0-3.135,0-4.701c-0.002-0.211,0.021-0.428-0.035-0.635c-0.129-0.352-0.49-0.562-0.846-0.619
		c-0.557-0.07-1.121,0.039-1.648,0.22c-0.012,2.029-0.012,4.057-0.01,6.086c0.326,0.174,0.691,0.275,1.006,0.464
		c0.021,0.258,0.018,0.52,0.002,0.781c-0.051,0.063-0.141,0.036-0.209,0.043c-1.611-0.014-3.225,0.005-4.834-0.01
		c-0.004-0.281-0.006-0.564-0.008-0.844c0.344-0.136,0.691-0.273,1.033-0.414C8.146,9.625,8.162,6.912,8.146,4.199
		c0.006-0.703-0.012-1.409,0.01-2.112c-0.344-0.22-0.764-0.303-1.094-0.542c-0.023-0.249-0.035-0.502,0-0.748
		C7.164,0.769,7.268,0.754,7.371,0.74L7.371,0.74z"/>
	<path fill="#34527F" d="M76.936,0.23c0.84-0.162,1.723,0.426,1.908,1.256c0.201,0.738-0.195,1.58-0.885,1.908
		c-0.508,0.254-1.146,0.229-1.629-0.078c-0.592-0.352-0.918-1.104-0.762-1.778C75.699,0.875,76.271,0.334,76.936,0.23L76.936,0.23z"
		/>
	<path fill="#B5C8D7" d="M2.209,2.566c0.824-0.127,1.65-0.246,2.477-0.369C4.684,2.93,4.67,3.66,4.678,4.391
		c0.688,0.014,1.373,0,2.061,0.009c-0.01,0.512-0.006,1.025-0.004,1.538C6.066,5.953,5.398,5.924,4.729,5.939
		c0.01,1.771,0.012,3.539,0.027,5.307c-0.008,0.455,0.359,0.895,0.822,0.92c0.43,0.017,0.859-0.012,1.289-0.025
		c0.006,0.389-0.012,0.775,0.01,1.162c-0.195,0.133-0.414,0.232-0.646,0.281c-0.697,0.164-1.416,0.215-2.131,0.259
		c-0.51,0.036-1.043-0.068-1.469-0.365c-0.447-0.305-0.738-0.795-0.893-1.305c-0.092-0.3-0.064-0.619-0.066-0.928
		C1.674,9.468,1.68,7.691,1.68,5.91C1.203,5.9,0.727,5.908,0.25,5.904c0.002-0.449-0.002-0.899,0-1.352
		c0.463-0.055,0.924-0.139,1.387-0.205c0.014-0.561-0.01-1.123,0.012-1.684C1.828,2.6,2.021,2.595,2.209,2.566L2.209,2.566z"/>
	<path fill="#34527F" d="M57.34,4.699c1.344-0.211,2.686-0.426,4.027-0.631c-0.008,0.67-0.012,1.342-0.014,2.014
		c0.244-0.488,0.561-0.945,0.973-1.309c0.381-0.328,0.859-0.566,1.367-0.603c0.199-0.022,0.4,0.01,0.604,0.035
		c0.002,0.898,0,1.797,0,2.696c-0.648-0.082-1.309-0.137-1.951-0.01c-0.299,0.058-0.588,0.156-0.881,0.234
		c-0.018,1.305-0.004,2.612-0.014,3.918c0,0.414-0.006,0.828,0.006,1.24c0.42,0.166,0.84,0.334,1.26,0.5
		c0,0.254-0.002,0.51,0.004,0.764c-1.768,0-3.535,0-5.307,0c0.004-0.266,0-0.531,0.008-0.797c0.318-0.16,0.637-0.322,0.953-0.486
		c0.006-2.08,0.01-4.158,0-6.236c-0.346-0.162-0.693-0.318-1.035-0.49C57.34,5.259,57.34,4.978,57.34,4.699L57.34,4.699z"/>
	<path fill="#34527F" d="M74.645,4.697c1.393-0.2,2.789-0.398,4.184-0.594c-0.014,2.621-0.004,5.238-0.014,7.855
		c0,0.113,0.004,0.227,0.006,0.342c0.312,0.152,0.625,0.309,0.945,0.455c0.002,0.273,0.002,0.547,0.002,0.82
		c-1.676,0.003-3.355,0.003-5.029-0.002c0-0.283-0.002-0.568,0-0.852c0.336-0.146,0.668-0.301,1-0.449
		c0-2.082,0.006-4.163-0.004-6.246c-0.367-0.163-0.719-0.354-1.086-0.52C74.65,5.24,74.641,4.967,74.645,4.697L74.645,4.697z"/>
	<path fill="#34527F" d="M89.436,4.729c1.371-0.209,2.738-0.436,4.111-0.649c0,0.444,0.014,0.889,0.01,1.333
		c0.703-0.708,1.688-1.084,2.67-1.197c0.455-0.04,0.928-0.079,1.381,0.029c0.49,0.104,0.949,0.395,1.223,0.82
		c0.287,0.42,0.4,0.932,0.418,1.435c0.002,1.944-0.004,3.887,0.002,5.833c0.332,0.139,0.664,0.283,1,0.417
		c0,0.276,0,0.551-0.004,0.83c-1.705-0.003-3.414,0-5.117-0.003c-0.002-0.26,0-0.52,0.004-0.777c0.346-0.16,0.684-0.34,1.031-0.504
		c0-1.746,0-3.491,0-5.239c0-0.277-0.09-0.562-0.303-0.75c-0.273-0.242-0.65-0.318-1.008-0.314c-0.418-0.01-0.828,0.094-1.225,0.219
		c0,2.031-0.006,4.062,0.006,6.094c0.312,0.137,0.623,0.289,0.928,0.441c-0.01,0.287-0.01,0.572-0.002,0.857
		c-1.678-0.008-3.354-0.002-5.033-0.002c0.006-0.291,0.004-0.584,0-0.875c0.338-0.133,0.67-0.279,1.012-0.402
		c0.004-2.1,0.01-4.201-0.002-6.301c-0.375-0.154-0.732-0.342-1.102-0.51C89.436,5.25,89.436,4.988,89.436,4.729L89.436,4.729z"/>
	<path fill="#34527F" d="M37.115,4.791c1.377-0.215,2.75-0.428,4.127-0.643c-0.014,2.266,0,4.53-0.006,6.795
		c-0.049,0.341,0.24,0.595,0.48,0.783c0.34,0.264,0.795,0.271,1.195,0.188c0.277-0.039,0.547-0.129,0.801-0.242
		c0.004-1.85,0.006-3.698,0-5.549c-0.365-0.17-0.719-0.361-1.08-0.54c0-0.255,0-0.51,0-0.767C44,4.597,45.367,4.385,46.734,4.176
		c0,2.619,0,5.24,0,7.861c0.342,0.188,0.674,0.391,1.016,0.581c0.01,0.246,0.006,0.494,0,0.74c-1.328,0.156-2.66,0.32-3.988,0.476
		c0.004-0.449,0-0.898,0-1.348c-0.621,0.733-1.52,1.225-2.477,1.338c-0.717,0.094-1.498,0.004-2.09-0.439
		c-0.674-0.508-0.99-1.368-1.02-2.188c0.004-1.693-0.01-3.384,0.004-5.078c-0.346-0.186-0.707-0.35-1.062-0.523
		C37.115,5.328,37.117,5.059,37.115,4.791L37.115,4.791z"/>
	<path fill="#B5C8D7" d="M20.047,4.568c0.936-0.48,2.014-0.611,3.055-0.552c0.783,0.047,1.592,0.277,2.193,0.799
		c0.59,0.515,0.951,1.25,1.098,2.009c0.162,0.741,0.166,1.504,0.127,2.258c-1.85-0.014-3.697,0-5.545-0.008
		c0.027,0.682,0.244,1.383,0.721,1.891c0.416,0.473,1.035,0.725,1.654,0.795c0.947,0.105,1.891-0.09,2.811-0.299
		c0.004,0.268,0.023,0.54-0.002,0.811c-0.016,0.11-0.113,0.186-0.186,0.264c-0.654,0.629-1.541,0.971-2.43,1.094
		c-0.672,0.107-1.359,0.059-2.029-0.039c-0.967-0.141-1.945-0.518-2.602-1.27c-0.732-0.84-1-1.979-1.072-3.062
		c-0.01-0.986,0.1-1.996,0.52-2.9C18.703,5.598,19.305,4.953,20.047,4.568L20.047,4.568z M21.58,5.234
		c-0.299,0.27-0.402,0.68-0.48,1.061c-0.098,0.562-0.127,1.133-0.137,1.703c0.852-0.033,1.709-0.083,2.562-0.111
		c0.008-0.684-0.008-1.375-0.137-2.051c-0.059-0.316-0.225-0.654-0.547-0.77C22.432,4.922,21.92,4.932,21.58,5.234L21.58,5.234z"/>
	<path fill="#34527F" d="M69.338,0.996c1.361-0.219,2.729-0.422,4.092-0.648c0.004,3.912,0.01,7.824,0.004,11.738
		c0.318,0.159,0.635,0.332,0.957,0.485c-0.006,0.262-0.004,0.525,0,0.787c-1.322,0.16-2.637,0.32-3.955,0.48
		c0-0.32,0-0.639,0.006-0.959c-0.582,0.697-1.529,0.925-2.398,0.964c-0.992-0.005-1.982-0.435-2.643-1.181
		c-0.752-0.84-1.029-1.998-1.062-3.102c-0.025-1.105,0.104-2.249,0.609-3.246c0.439-0.875,1.225-1.571,2.154-1.881
		c0.932-0.311,1.973-0.385,2.91-0.059c0.111,0.037,0.225,0.078,0.34,0.117c0-0.735,0-1.467-0.004-2.2
		c-0.336-0.154-0.668-0.324-1.006-0.476C69.338,1.543,69.336,1.27,69.338,0.996L69.338,0.996z M68.662,5.588
		c-0.287,0.15-0.482,0.424-0.609,0.713c-0.299,0.66-0.375,1.395-0.43,2.113c-0.039,0.874-0.082,1.782,0.225,2.618
		c0.16,0.439,0.469,0.854,0.922,1.021c0.508,0.193,1.074,0.123,1.582-0.036c-0.014-2.085,0.006-4.169-0.01-6.25
		C69.879,5.398,69.186,5.31,68.662,5.588L68.662,5.588z"/>
	<path fill="#34527F" d="M51.52,4.136c0.723-0.086,1.455-0.025,2.164,0.119c0.699,0.155,1.402,0.432,1.904,0.959
		c0.355,0.367,0.551,0.875,0.561,1.383c0.002,1.84,0,3.681,0,5.52c0.002,0.033,0.01,0.1,0.012,0.134
		c0.322,0.186,0.662,0.352,0.994,0.527c0,0.225,0.002,0.452,0,0.68c-0.732,0.307-1.547,0.463-2.334,0.32
		c-0.463-0.092-0.941-0.303-1.221-0.703c-0.131-0.176-0.166-0.395-0.199-0.604c-0.205,0.277-0.377,0.58-0.654,0.787
		c-0.557,0.428-1.285,0.535-1.969,0.555c-0.707,0.019-1.479-0.107-2.029-0.59c-0.471-0.396-0.719-1.012-0.758-1.617
		c-0.064-0.633,0.062-1.309,0.455-1.82c0.375-0.5,0.977-0.771,1.58-0.881c0.998-0.18,1.994-0.385,2.998-0.541
		c-0.004-0.623,0.01-1.246-0.01-1.869c-0.076-0.504-0.41-1.051-0.957-1.123c-0.385-0.029-0.771,0-1.156-0.002
		c-0.229,0.631-0.463,1.257-0.689,1.887c-0.541,0.003-1.084,0.008-1.625-0.002c0.004-0.815,0.004-1.633,0.01-2.446
		C49.547,4.494,50.523,4.234,51.52,4.136L51.52,4.136z M51.959,9.468c-0.371,0.131-0.713,0.415-0.834,0.801
		c-0.133,0.417-0.107,0.885,0.062,1.289c0.152,0.381,0.562,0.622,0.967,0.606c0.342,0.002,0.654-0.147,0.947-0.303
		c0.02-0.85,0-1.7,0.01-2.549C52.721,9.302,52.326,9.326,51.959,9.468L51.959,9.468z"/>
	<path fill="#34527F" d="M80.732,4.8c1.1-0.365,2.236-0.658,3.395-0.711c1.002-0.011,2.041,0.125,2.936,0.604
		c0.502,0.277,0.947,0.714,1.117,1.279c0.137,0.4,0.104,0.827,0.107,1.242c0,1.678-0.004,3.357,0.004,5.034
		c0.334,0.169,0.664,0.348,0.998,0.518c0,0.229,0,0.453,0,0.68c-0.504,0.209-1.035,0.359-1.582,0.373
		c-0.627,0.029-1.301-0.102-1.779-0.532c-0.242-0.208-0.365-0.515-0.395-0.826c-0.205,0.279-0.381,0.591-0.668,0.799
		c-0.4,0.31-0.904,0.447-1.396,0.506c-0.559,0.068-1.133,0.062-1.68-0.082c-0.527-0.139-1.018-0.463-1.301-0.934
		c-0.346-0.547-0.424-1.224-0.35-1.855c0.076-0.728,0.527-1.414,1.191-1.728c0.502-0.262,1.074-0.303,1.621-0.418
		c0.74-0.133,1.475-0.279,2.217-0.4c-0.012-0.617-0.006-1.233-0.016-1.852c-0.064-0.518-0.424-1.071-0.98-1.135
		c-0.377-0.029-0.758,0.005-1.139-0.002c-0.225,0.633-0.463,1.26-0.688,1.893c-0.543,0-1.084-0.003-1.623,0
		C80.725,6.433,80.729,5.615,80.732,4.8L80.732,4.8z M84.182,9.429c-0.4,0.118-0.777,0.401-0.914,0.811
		c-0.15,0.443-0.117,0.949,0.088,1.371c0.189,0.396,0.66,0.602,1.084,0.535c0.283-0.039,0.553-0.152,0.791-0.305
		c0.02-0.113,0.014-0.225,0.016-0.339c-0.006-0.735,0.008-1.473-0.006-2.209C84.885,9.303,84.521,9.307,84.182,9.429L84.182,9.429z"
		/>
	<path fill="#34527F" d="M30.152,4.414c0.797-0.268,1.656-0.413,2.492-0.266c0.525,0.081,1.029,0.252,1.541,0.395
		c0.078,0.02,0.162,0.005,0.244-0.006c0.791-0.146,1.578-0.298,2.373-0.438c0.002,0.605,0.02,1.213,0.025,1.819
		c-0.586-0.16-1.176-0.316-1.764-0.471c0.523,0.432,0.904,1.059,0.969,1.743c0.072,0.801-0.191,1.65-0.787,2.21
		c-0.553,0.53-1.285,0.823-2.025,0.987c-0.572,0.117-1.164,0.188-1.748,0.107c-0.363-0.033-0.719-0.131-1.076-0.196
		c-0.33,0.215-0.43,0.694-0.232,1.026c0.131,0.195,0.369,0.297,0.6,0.285c1.275-0.002,2.553,0.007,3.828-0.006
		c0.684,0,1.406,0.205,1.889,0.711c0.393,0.396,0.578,0.949,0.627,1.494c0.088,0.865-0.094,1.785-0.646,2.473
		c-0.512,0.639-1.273,1.02-2.051,1.234c-1.234,0.333-2.539,0.334-3.803,0.211c-0.865-0.109-1.744-0.28-2.512-0.707
		c-0.379-0.211-0.73-0.52-0.877-0.94c-0.172-0.505,0.016-1.08,0.395-1.441c0.473-0.457,1.115-0.688,1.75-0.812
		c-0.51-0.156-1.018-0.445-1.281-0.924c-0.271-0.502-0.166-1.129,0.133-1.592c0.342-0.534,0.814-0.982,1.352-1.311
		c-0.652-0.354-1.195-0.922-1.449-1.629c-0.27-0.773-0.219-1.655,0.131-2.393C28.619,5.21,29.363,4.688,30.152,4.414L30.152,4.414z
		 M31.754,5.211c-0.254,0.05-0.492,0.205-0.619,0.434c-0.229,0.377-0.26,0.83-0.25,1.262c0.012,0.494-0.023,0.992,0.035,1.488
		c0.033,0.297,0.162,0.61,0.43,0.772c0.287,0.16,0.631,0.185,0.951,0.129C32.648,9.227,32.902,8.921,33,8.59
		c0.102-0.312,0.107-0.645,0.098-0.973c-0.016-0.502,0.033-1.014-0.068-1.508c-0.059-0.244-0.152-0.496-0.348-0.664
		C32.434,5.221,32.076,5.158,31.754,5.211L31.754,5.211z M29.777,15.801c0.166,0.344,0.508,0.557,0.855,0.684
		c0.643,0.22,1.338,0.23,2.01,0.158c0.475-0.061,0.967-0.172,1.348-0.484c0.266-0.215,0.436-0.541,0.465-0.883
		c0.039-0.238-0.025-0.504-0.215-0.666c-0.172-0.141-0.396-0.217-0.619-0.219c-1.184,0.002-2.369,0.006-3.555,0.006
		C29.68,14.736,29.549,15.337,29.777,15.801L29.777,15.801z"/>
</g>
</svg>
