<?xml version="1.0" encoding="utf-8"?>
<!-- Generator: Adobe Illustrator 16.0.0, SVG Export Plug-In . SVG Version: 6.00 Build 0)  -->
<!DOCTYPE svg PUBLIC "-//W3C//DTD SVG 1.1//EN" "http://www.w3.org/Graphics/SVG/1.1/DTD/svg11.dtd">
<svg version="1.1" id="Layer_1" xmlns="http://www.w3.org/2000/svg" xmlns:xlink="http://www.w3.org/1999/xlink" x="0px" y="0px"
	 width="35px" height="30px" viewBox="0 0 35 30" enable-background="new 0 0 35 30" xml:space="preserve">
<path display="none" fill="#55ACEE" d="M35,4.145c-1.288,0.572-2.672,0.958-4.124,1.132c1.482-0.889,2.62-2.296,3.157-3.974
	c-1.388,0.823-2.925,1.421-4.561,1.743c-1.31-1.396-3.176-2.268-5.241-2.268c-3.965,0-7.181,3.215-7.181,7.181
	c0,0.562,0.063,1.11,0.186,1.636c-5.968-0.299-11.259-3.158-14.8-7.502c-0.618,1.061-0.973,2.293-0.973,3.61
	c0,2.49,1.269,4.688,3.194,5.977c-1.177-0.038-2.283-0.36-3.252-0.898c0,0.03-0.001,0.061-0.001,0.09
	c0,3.479,2.476,6.382,5.761,7.041c-0.604,0.164-1.237,0.252-1.893,0.252c-0.463,0-0.912-0.045-1.351-0.129
	c0.914,2.853,3.565,4.929,6.707,4.987c-2.457,1.926-5.553,3.074-8.917,3.074c-0.58,0-1.151-0.034-1.713-0.101
	c3.178,2.037,6.952,3.226,11.007,3.226c13.208,0,20.431-10.941,20.431-20.431c0-0.311-0.007-0.62-0.021-0.929
	C32.819,6.85,34.037,5.585,35,4.145z"/>
<g>
	<path id="Triangle" fill="#FFFFFF" d="M13.885,19.54l9.457-4.9l-9.457-4.934V19.54z"/>
	<path id="The_Sharpness" opacity="0.12" fill-rule="evenodd" clip-rule="evenodd" fill="#420000" d="M13.885,9.706l8.293,5.538
		l1.164-0.604L13.885,9.706z"/>
	<g id="Lozenge">
		<g>
			<linearGradient id="SVGID_1_" gradientUnits="userSpaceOnUse" x1="17.5" y1="2.6914" x2="17.5" y2="27.3086">
				<stop  offset="0" style="stop-color:#E52D27"/>
				<stop  offset="1" style="stop-color:#BF171D"/>
			</linearGradient>
			<path fill="url(#SVGID_1_)" d="M34.65,8.002c0,0-0.343-2.412-1.392-3.474c-1.331-1.394-2.823-1.401-3.507-1.482
				c-4.898-0.354-12.245-0.354-12.245-0.354h-0.015c0,0-7.347,0-12.245,0.354C4.563,3.127,3.072,3.134,1.74,4.528
				C0.691,5.59,0.35,8.002,0.35,8.002S0,10.834,0,13.667v2.655c0,2.832,0.35,5.665,0.35,5.665s0.342,2.412,1.391,3.474
				c1.332,1.394,3.08,1.35,3.859,1.496c2.8,0.268,11.9,0.352,11.9,0.352s7.354-0.011,12.252-0.365
				c0.684-0.082,2.176-0.088,3.507-1.482c1.049-1.062,1.392-3.474,1.392-3.474S35,19.154,35,16.322v-2.655
				C35,10.834,34.65,8.002,34.65,8.002z M13.886,19.54l-0.001-9.834l9.457,4.934L13.886,19.54z"/>
		</g>
	</g>
</g>
</svg>
